<?xml version='1.0' encoding='utf-8'?>
<svg xmlns="http://www.w3.org/2000/svg" width="620" height="270" viewBox="0 0 620 270" font-family="Inter, sans-serif">
  <style>text { font-family: Inter, sans-serif; } .heading { font-family: Georgia, serif; font-weight: 700; } .code { font-family: JetBrains Mono, monospace; }</style>
  <defs>
    <filter id="shadow" x="-5%" y="-5%" width="110%" height="120%">
      <feOffset dx="0" dy="2" in="SourceAlpha" result="offOut" />
      <feGaussianBlur in="offOut" stdDeviation="3" result="blurOut" />
      <feBlend in="SourceGraphic" in2="blurOut" mode="normal" />
    </filter>
    <marker id="arrowhead" markerWidth="8" markerHeight="8" refX="8" refY="4" orient="auto" markerUnits="userSpaceOnUse">
      <polygon points="0 0, 8 4, 0 8" fill="#757575" />
    </marker>
  </defs>
  <text x="310" y="36" text-anchor="middle" dominant-baseline="middle" class="heading" font-size="22" fill="#1a1a2e">Fitness Landscape Concepts</text>
  <rect x="20" y="70" width="140" height="50" rx="12" ry="12" fill="#e3f2fd" stroke="#2196f3" stroke-width="2" filter="url(#shadow)" />
  <text x="90" y="95" text-anchor="middle" dominant-baseline="middle" font-size="13" fill="#0d47a1" font-weight="600">Fitness
Landscape</text>
  <rect x="240" y="70" width="140" height="50" rx="12" ry="12" fill="#e8f5e9" stroke="#4caf50" stroke-width="2" filter="url(#shadow)" />
  <text x="310" y="95" text-anchor="middle" dominant-baseline="middle" font-size="13" fill="#1b5e20" font-weight="600">Global
Optimum</text>
  <rect x="460" y="70" width="140" height="50" rx="12" ry="12" fill="#fff8e1" stroke="#ff9800" stroke-width="2" filter="url(#shadow)" />
  <text x="530" y="95" text-anchor="middle" dominant-baseline="middle" font-size="13" fill="#e65100" font-weight="600">Local
Optima</text>
  <rect x="20" y="200" width="140" height="50" rx="12" ry="12" fill="#f5f5f5" stroke="#9e9e9e" stroke-width="2" filter="url(#shadow)" />
  <text x="90" y="225" text-anchor="middle" dominant-baseline="middle" font-size="13" fill="#424242" font-weight="600">Plateaus</text>
  <rect x="240" y="200" width="140" height="50" rx="12" ry="12" fill="#f3e5f5" stroke="#7c4dff" stroke-width="2" filter="url(#shadow)" />
  <text x="310" y="225" text-anchor="middle" dominant-baseline="middle" font-size="13" fill="#4a148c" font-weight="600">Population
Diversity</text>
  <line x1="160" y1="95" x2="302" y2="95" stroke="#757575" stroke-width="2" marker-end="url(#arrowhead)" />
  <rect x="165" y="77" width="70" height="20" rx="10" ry="10" fill="#ffffff" stroke="#e0e0e0" stroke-width="1" />
  <text x="200" y="87" text-anchor="middle" dominant-baseline="middle" font-size="11" fill="#757575">contains</text>
  <line x1="160" y1="95" x2="522" y2="95" stroke="#757575" stroke-width="2" marker-end="url(#arrowhead)" />
  <rect x="275" y="77" width="70" height="20" rx="10" ry="10" fill="#ffffff" stroke="#e0e0e0" stroke-width="1" />
  <text x="310" y="87" text-anchor="middle" dominant-baseline="middle" font-size="11" fill="#757575">contains</text>
  <line x1="90" y1="165" x2="90" y2="217" stroke="#757575" stroke-width="2" marker-end="url(#arrowhead)" />
  <rect x="55" y="142" width="70" height="20" rx="10" ry="10" fill="#ffffff" stroke="#e0e0e0" stroke-width="1" />
  <text x="90" y="152" text-anchor="middle" dominant-baseline="middle" font-size="11" fill="#757575">contains</text>
  <line x1="370" y1="189" x2="523" y2="99" stroke="#757575" stroke-width="2" marker-end="url(#arrowhead)" />
  <rect x="385" y="142" width="70" height="20" rx="10" ry="10" fill="#ffffff" stroke="#e0e0e0" stroke-width="1" />
  <text x="420" y="152" text-anchor="middle" dominant-baseline="middle" font-size="11" fill="#757575">escapes</text>
</svg>