<svg xmlns="http://www.w3.org/2000/svg" viewBox="0 0 24 24" fill="none" stroke="currentColor" stroke-width="2" stroke-linecap="round" stroke-linejoin="round">
  <!-- Center line -->
  <path d="M12 2C12 2 12 22 12 22"/>
  <!-- Left hemisphere -->
  <path d="M12 5C10 3 6 3 5 6C3.5 5.5 2 7 2 9C1.5 10 2 12 4 13C3 14 3 16 5 17C5 19 7 20 9 19C10 21 12 22 12 22"/>
  <!-- Right hemisphere -->
  <path d="M12 5C14 3 18 3 19 6C20.5 5.5 22 7 22 9C22.5 10 22 12 20 13C21 14 21 16 19 17C19 19 17 20 15 19C14 21 12 22 12 22"/>
</svg>
