<svg xmlns="http://www.w3.org/2000/svg" viewBox="0 0 24 24" fill="none" stroke="currentColor" stroke-width="2" stroke-linecap="round" stroke-linejoin="round">
  <!-- Left strand -->
  <path d="M7 2C7 2 5 6 5 8C5 10 9 12 9 12C9 12 5 14 5 16C5 18 7 22 7 22"/>
  <!-- Right strand -->
  <path d="M17 2C17 2 19 6 19 8C19 10 15 12 15 12C15 12 19 14 19 16C19 18 17 22 17 22"/>
  <!-- Rungs -->
  <line x1="7" y1="4" x2="17" y2="4"/>
  <line x1="6" y1="8" x2="18" y2="8"/>
  <line x1="9" y1="12" x2="15" y2="12"/>
  <line x1="6" y1="16" x2="18" y2="16"/>
  <line x1="7" y1="20" x2="17" y2="20"/>
</svg>
